<svg xmlns="http://www.w3.org/2000/svg" viewBox="0 0 99.36 10.76"><title>gp-logo-2020</title><path d="M6.53,7.18a3.84,3.84,0,0,1-1,3A3.74,3.74,0,0,1,2.9,11a5.1,5.1,0,0,1-2-.36l.41-1.8a3.67,3.67,0,0,0,1.46.3c1,0,1.36-.7,1.36-1.62v-.3a1.56,1.56,0,0,1-1.32.67C1,7.92.42,5.93.42,4.3c0-2.38,1.09-4,2.6-4a1.5,1.5,0,0,1,1.38.86L4.56.44H6.61c-.05.77-.08,1.61-.08,2.41ZM4.17,3.26a1.71,1.71,0,0,0-.09-.55.52.52,0,0,0-.46-.4c-.66,0-.87.91-.87,1.95s.3,1.82.83,1.82a.57.57,0,0,0,.49-.32,1.28,1.28,0,0,0,.1-.55Zm8.83,3A10.27,10.27,0,0,0,13.09,8H11l-.13-.72a2.1,2.1,0,0,1-1.73.84A2.15,2.15,0,0,1,7,6a1.48,1.48,0,0,1,0-.21c0-2,1.84-2.82,3.54-2.83V2.79c0-.42-.38-.74-1-.74a3,3,0,0,0-1.66.46L7.5.93A5.8,5.8,0,0,1,10.09.32C12.71.32,13,2.19,13,3.65ZM10.64,4.41c-.69,0-1.4.29-1.4,1.09,0,.64.39.89.65.89a.74.74,0,0,0,.7-.45.79.79,0,0,0,.05-.3Zm3.25-1.56c0-.8,0-1.64-.06-2.41h2.05L16,1.3a2.39,2.39,0,0,1,1.84-1,1.69,1.69,0,0,1,1.67,1,2.82,2.82,0,0,1,.78-.72A2.28,2.28,0,0,1,21.41.32c1.48,0,2,1.21,2,3V8H21.06V3.66c0-.8-.08-1.38-.56-1.38a.65.65,0,0,0-.61.49,2,2,0,0,0-.06.48V8H17.47V3.35c0-.42,0-1.07-.54-1.07a.67.67,0,0,0-.59.45,1.6,1.6,0,0,0-.09.53V8H13.89ZM26.37,5.19c0,.69.62,1.11,1.52,1.11a5.2,5.2,0,0,0,1.52-.25l.29,1.69a7.07,7.07,0,0,1-2.24.33c-2.16,0-3.37-1.3-3.37-3.67,0-2.58,1.44-4.08,3.22-4.08S30.05,1.46,30.05,4A5.9,5.9,0,0,1,30,5.19Zm1.55-1.64c0-.73-.12-1.53-.73-1.53s-.82.89-.82,1.53Z" transform="translate(-0.42 -0.28)" style="fill:red"/><path d="M30.74,2.85c0-.8,0-1.61-.06-2.41h2l.12.85a1.75,1.75,0,0,1,1.58-1c1.79,0,2.39,2,2.39,3.89,0,2.64-1.18,3.89-2.5,3.89a1.48,1.48,0,0,1-1.21-.67v3.49H30.74ZM33.1,5.24a1.55,1.55,0,0,0,.12.64.52.52,0,0,0,.46.29c.58,0,.81-.9.81-1.94,0-1.38-.33-1.92-.78-1.92a.54.54,0,0,0-.5.34,1,1,0,0,0-.11.52Zm4.43-2.39c0-.8,0-1.64-.06-2.41h2l.13,1.08h.06A1.71,1.71,0,0,1,41.14.32a2.18,2.18,0,0,1,.51,0V2.7a2.26,2.26,0,0,0-.52,0A1.18,1.18,0,0,0,40,3.52a2.3,2.3,0,0,0-.11.78V8H37.53ZM44,5.19c0,.69.61,1.11,1.51,1.11A5,5,0,0,0,47,6.05l.29,1.69a7,7,0,0,1-2.23.33c-2.16,0-3.38-1.3-3.38-3.67,0-2.58,1.44-4.08,3.22-4.08S47.68,1.46,47.68,4a7,7,0,0,1-.07,1.21Zm1.55-1.64c0-.73-.13-1.53-.74-1.53S44,2.91,44,3.55Zm2.82,2.38a3.27,3.27,0,0,0,1.43.4c.44,0,.69-.16.69-.49s-.23-.49-.84-.83a2.38,2.38,0,0,1-1.54-2.18A2.46,2.46,0,0,1,50.51.31h.25a3.73,3.73,0,0,1,1.61.34L52,2.37a2.39,2.39,0,0,0-1.08-.29c-.46,0-.66.23-.66.51s.17.41.86.8a2.42,2.42,0,0,1,1.5,2.25c0,1.56-1.13,2.43-2.83,2.43A3.51,3.51,0,0,1,48,7.64Zm4.82,0a3.19,3.19,0,0,0,1.42.4c.44,0,.69-.16.69-.49s-.23-.49-.84-.83a2.38,2.38,0,0,1-1.54-2.18A2.46,2.46,0,0,1,55.32.31h.26a3.83,3.83,0,0,1,1.6.34l-.36,1.71a2.39,2.39,0,0,0-1.08-.29c-.46,0-.66.23-.66.51s.17.41.86.8a2.42,2.42,0,0,1,1.5,2.25c0,1.56-1.13,2.43-2.83,2.43a3.56,3.56,0,0,1-1.81-.43Zm10.75-.35c0,.79,0,1.64.06,2.4H62l-.12-.8A2.15,2.15,0,0,1,60,8.1c-1.49,0-2.09-1.07-2.09-3.17V.44h2.38V4.69c0,.9.2,1.44.64,1.44a.52.52,0,0,0,.48-.31,1.38,1.38,0,0,0,.14-.63V.44h2.37Zm1-2.73c0-.8,0-1.64-.07-2.41h2L67,1.52h.07A1.7,1.7,0,0,1,68.52.32a2.18,2.18,0,0,1,.51,0V2.7a2.26,2.26,0,0,0-.52,0,1.19,1.19,0,0,0-1.12.85,2.3,2.3,0,0,0-.11.78V8H64.91Zm6.48,2.34c0,.69.61,1.11,1.51,1.11a5.2,5.2,0,0,0,1.52-.25l.29,1.69a7.07,7.07,0,0,1-2.24.33c-2.16,0-3.37-1.3-3.37-3.67,0-2.58,1.44-4.08,3.22-4.08S75.06,1.46,75.06,4A7.84,7.84,0,0,1,75,5.19Zm1.54-1.64c0-.73-.12-1.53-.73-1.53s-.81.89-.81,1.53Z" transform="translate(-0.42 -0.28)" style="fill:#fff"/><path d="M77,8.1a1.39,1.39,0,0,1-1.33-1.43.22.22,0,0,0,0-.08A1.45,1.45,0,0,1,77,5.06a1.38,1.38,0,0,1,1.34,1.42s0,.07,0,.11a1.35,1.35,0,0,1-1.18,1.5Z" transform="translate(-0.42 -0.28)" style="fill:none"/><path d="M83.44,7.87a3.84,3.84,0,0,1-1.3.2c-2,0-3.32-1.31-3.32-3.77S80.3.35,82.48.35A3.3,3.3,0,0,1,83.6.54l-.28,1.83a2.75,2.75,0,0,0-.7-.1c-.88,0-1.46.7-1.46,1.94s.54,2,1.41,2A1.77,1.77,0,0,0,83.28,6Z" transform="translate(-0.42 -0.28)" style="fill:none"/><path d="M86.58,8.1c-2,0-3.06-1.5-3.06-3.86C83.52,1.56,85,.32,86.6.32c2,0,3,1.6,3,3.86,0,3.23-1.9,3.92-3,3.92Zm0-1.77c.49,0,.64-1.06.64-2.13s-.15-2.1-.67-2.1-.74,1.1-.74,2.1c0,1.3.2,2.13.76,2.13Zm3.71-3.48c0-.8,0-1.64-.06-2.41h2l.13.86A2.39,2.39,0,0,1,94.2.3a1.67,1.67,0,0,1,1.8,1,2.82,2.82,0,0,1,.78-.72,2.07,2.07,0,0,1,1-.26c1.49,0,2,1.21,2,3V8H97.46V3.66c0-.8-.07-1.38-.55-1.38a.65.65,0,0,0-.61.49,2,2,0,0,0-.06.48V8H93.88V3.35c0-.42,0-1.07-.54-1.07a.67.67,0,0,0-.6.45,1.6,1.6,0,0,0-.09.53V8H90.29Z" transform="translate(-0.42 -0.28)" style="fill:none"/></svg>